<?xml version="1.0" encoding="UTF-8" standalone="no"?>
<!DOCTYPE svg PUBLIC "-//W3C//DTD SVG 20010904//EN" "http://www.w3.org/TR/2001/REC-SVG-20010904/DTD/svg10.dtd">
<svg viewBox="0 0 60 60" xmlns="http://www.w3.org/2000/svg">
<path d="m12.9561,29.4092v-4.3187c2.87913-7.19783 7.91958-14.29883 19.35947-14.67268 11.43988.52588 16.08987,7.11496 18.969,14.49274v5.03848" fill="none" stroke="#333" stroke-linecap="round" stroke-linejoin="round" stroke-width="3.55313" transform="matrix(.879507,.000000,.000000,.879507,1.964059,.419063)"/>
<path d="m13.4375,24.875c-6.20586,1.27097-10.875,6.7639-10.875,13.34375 0,6.60099 4.70185,12.09596 10.9375,13.34375v-26.6875h-.0625z" fill="#333" fill-rule="evenodd" stroke="#333" stroke-linecap="round" stroke-linejoin="round" stroke-width="3.55313" transform="matrix(.879507,.000000,.000000,.879507,1.489268,4.406107)"/>
<path d="m29.25699,24.875c6.20586,1.27097 10.875,6.7639 10.875,13.34375 0,6.60099-4.70185,12.09596-10.9375,13.34375v-26.6875h.0625z" fill="#333" fill-rule="evenodd" stroke="#333" stroke-linecap="round" stroke-linejoin="round" stroke-width="3.55313" transform="matrix(.879507,.000000,.000000,.879507,21.43050,4.406107)"/>
<path d="m15.74526,40.74579 3.50894-13.85583 1.25962,13.94581 1.34959-3.59892 1.61951,2.60921 2.42927-10.43686 2.78916,11.33659 3.23903-14.93551 1.16965,13.9458 1.61951-5.6683 1.25962,5.3084 2.87913-6.2981 2.15935,6.74797 3.05908-8.6374 1.9794,9.44716 2.5983-3.68889v9.08727l-2.23841,3.14905-1.9794-4.49865-3.329,3.05908-.53984,3.14905-1.43957-6.02819-2.15935,5.03848-2.42927-4.40867-2.69919,7.10786-1.16965-8.18754-4.22873,6.02819-.08997-6.56802-4.04878,6.83794-.44986-3.41897-3.23903,3.77886-.62981-3.23903-2.51924.80976 .26992-7.91762z" fill="#7f7f7f" fill-rule="evenodd" stroke="#333" stroke-linecap="round" stroke-linejoin="round" stroke-width="2.24266" transform="matrix(.710946,.000000,.000000,.983194,7.153329,-1.114914)"/>
<path d="m15.56532,24.64064v27.44174" fill="none" stroke="#333" stroke-linecap="round" stroke-linejoin="round" stroke-width="3.72382" transform="matrix(.800727,.000000,.000000,.879507,6.209874,4.406107)"/>
<path d="m45.20576,24.64064v27.44174" fill="none" stroke="#333" stroke-linecap="round" stroke-linejoin="round" stroke-width="3.72382" transform="matrix(.800727,.000000,.000000,.879507,5.496678,4.406107)"/>
</svg>
