<?xml version="1.0" standalone="no"?>
<!DOCTYPE svg PUBLIC "-//W3C//DTD SVG 20010904//EN" "http://www.w3.org/TR/2001/REC-SVG-20010904/DTD/svg10.dtd">
<!-- Created using Karbon, part of Calligra: http://www.calligra.org/karbon -->
<svg xmlns="http://www.w3.org/2000/svg" xmlns:xlink="http://www.w3.org/1999/xlink" width="283.465pt" height="283.465pt">
<defs/>
<g id="layer0">
  <path id="shape0" transform="translate(3.49095, 18.3275)" fill="#d0f53a" fill-opacity="0.83137254902" fill-rule="evenodd" stroke="#000000" stroke-width="1.25000000000" stroke-linecap="square" stroke-linejoin="miter" stroke-miterlimit="2.00000000000" d="M212.054 303.276L173.457 244.431L134.859 303.276L128.557 235.241L65.3082 273.242L92.5506 209.493L17.1776 219.123L72.5685 172.286L-7.52172e-14 151.638L72.5685 130.99L17.1776 84.1528L92.5506 93.783L65.3082 30.0338L128.557 68.035L134.859 -7.10543e-14L173.457 58.8457L212.054 -7.10543e-14L218.356 68.035L281.605 30.0338L254.362 93.783L329.735 84.1528L274.345 130.99L346.913 151.638L274.345 172.286L329.735 219.123L254.362 209.493L281.605 273.242L218.356 235.241Z"/>
 </g>
</svg>
